<?xml version="1.0" standalone="no"?>
<!DOCTYPE svg PUBLIC "-//W3C//DTD SVG 20010904//EN"
 "http://www.w3.org/TR/2001/REC-SVG-20010904/DTD/svg10.dtd">
<svg version="1.0" xmlns="http://www.w3.org/2000/svg"
 width="155.000000pt" height="219.000000pt" viewBox="0 0 155.000000 219.000000"
 preserveAspectRatio="xMidYMid meet">
<metadata>
Created by potrace 1.16, written by Peter Selinger 2001-2019
</metadata>
<g transform="translate(0.000000,219.000000) scale(0.100000,-0.100000)"
fill="#2bb7da" stroke="none">
<path d="M700 2114 c-154 -29 -328 -148 -380 -261 -12 -26 -27 -59 -33 -72 -7
-14 -12 -72 -12 -140 1 -108 3 -120 31 -181 129 -274 510 -378 794 -217 88 50
148 117 199 222 32 65 35 77 35 170 1 76 -4 112 -18 150 -79 201 -259 323
-491 330 -55 2 -111 1 -125 -1z"/>
<path d="M515 1022 c-168 -37 -271 -124 -358 -302 -32 -66 -81 -207 -107 -310
-34 -128 -42 -174 -47 -245 -5 -73 -3 -83 18 -109 45 -57 29 -56 769 -56 711
0 704 0 743 43 31 36 20 154 -33 347 -27 101 -52 187 -60 205 -4 11 -16 43
-25 70 -61 174 -140 271 -258 317 -28 11 -61 25 -72 31 -22 13 -517 20 -570 9z"/>
</g>
</svg>
