<?xml version="1.0" standalone="no"?>
<!DOCTYPE svg PUBLIC "-//W3C//DTD SVG 20010904//EN"
 "http://www.w3.org/TR/2001/REC-SVG-20010904/DTD/svg10.dtd">
<svg version="1.0" xmlns="http://www.w3.org/2000/svg"
 width="242.000000pt" height="291.000000pt" viewBox="0 0 242.000000 291.000000"
 preserveAspectRatio="xMidYMid meet">
<metadata>
Created by potrace 1.16, written by Peter Selinger 2001-2019
</metadata>
<g transform="translate(0.000000,291.000000) scale(0.100000,-0.100000)"
fill="#2bb7da" stroke="none">
<path d="M1360 2790 l0 -120 530 0 530 0 0 120 0 120 -530 0 -530 0 0 -120z"/>
<path d="M1360 2405 l0 -115 530 0 530 0 0 115 0 115 -530 0 -530 0 0 -115z"/>
<path d="M1360 2020 l0 -120 530 0 530 0 0 120 0 120 -530 0 -530 0 0 -120z"/>
<path d="M1360 1630 l0 -120 530 0 530 0 0 120 0 120 -530 0 -530 0 0 -120z"/>
<path fill="#606062" d="M0 1250 l0 -120 520 0 520 0 0 120 0 120 -520 0 -520 0 0 -120z"/>
<path fill="#606062" d="M1360 1250 l0 -120 530 0 530 0 0 120 0 120 -530 0 -530 0 0 -120z"/>
<path fill="#606062" d="M0 860 l0 -120 520 0 520 0 0 120 0 120 -520 0 -520 0 0 -120z"/>
<path fill="#606062" d="M1360 860 l0 -120 530 0 530 0 0 120 0 120 -530 0 -530 0 0 -120z"/>
<path fill="#606062" d="M0 480 l0 -120 520 0 520 0 0 120 0 120 -520 0 -520 0 0 -120z"/>
<path fill="#606062" d="M1360 480 l0 -120 530 0 530 0 0 120 0 120 -530 0 -530 0 0 -120z"/>
<path fill="#606062" d="M0 105 l0 -105 520 0 520 0 0 105 0 105 -520 0 -520 0 0 -105z"/>
<path fill="#606062" d="M1360 105 l0 -105 530 0 530 0 0 105 0 105 -530 0 -530 0 0 -105z"/>
</g>
</svg>
