<?xml version="1.0" standalone="no"?>
<!DOCTYPE svg PUBLIC "-//W3C//DTD SVG 20010904//EN"
 "http://www.w3.org/TR/2001/REC-SVG-20010904/DTD/svg10.dtd">
<svg version="1.0" xmlns="http://www.w3.org/2000/svg"
 width="9505.000000pt" height="5592.000000pt" viewBox="0 0 9505.000000 5592.000000"
 preserveAspectRatio="xMidYMid meet">
<metadata>
Created by potrace 1.16, written by Peter Selinger 2001-2019
</metadata>
<g transform="translate(0.000000,5592.000000) scale(0.100000,-0.100000)"
fill="#4d4d50" stroke="none">
<path d="M9635 52645 c-1274 -142 -1456 -165 -1497 -184 -53 -26 -133 -106
-152 -154 -8 -17 -194 -761 -415 -1652 -221 -891 -404 -1628 -407 -1637 -5
-16 -101 -18 -1602 -21 -1589 -3 -1597 -3 -1682 -24 -47 -12 -119 -34 -160
-48 -430 -156 -746 -535 -825 -989 -21 -125 -21 -561 0 -634 19 -64 97 -151
163 -184 44 -21 63 -23 267 -28 l220 -5 463 -4325 c428 -3997 465 -4329 487
-4377 32 -70 102 -137 171 -162 l55 -21 2604 0 c2547 0 2606 0 2655 19 28 11
67 32 86 46 49 37 101 121 113 180 6 28 215 1967 466 4310 250 2343 458 4277
461 4298 l6 37 204 0 c177 0 210 3 254 19 77 29 134 82 171 157 32 64 33 70
37 228 6 211 -11 427 -43 549 -54 209 -155 391 -304 548 -190 201 -394 318
-676 386 -64 16 -195 17 -1497 20 -786 2 -1428 7 -1428 12 0 8 677 2744 700
2830 l9 36 1298 143 c714 79 1307 147 1318 150 20 7 20 9 -14 325 -22 202 -38
317 -45 316 -6 -1 -663 -74 -1461 -164z m1025 -4307 c113 -35 200 -87 280
-167 112 -112 171 -231 186 -377 l7 -64 -3807 0 -3806 0 0 20 c0 12 7 56 16
98 53 263 263 462 529 501 34 5 1490 8 3300 7 3023 -1 3244 -2 3295 -18z
m-204 -1295 c-11 -83 -876 -8165 -876 -8185 0 -17 -71 -18 -2250 -18 l-2250 0
-5 23 c-2 12 -200 1856 -440 4097 -239 2241 -437 4087 -440 4103 l-4 27 3135
0 3136 0 -6 -47z"/>
<path d="M21615 52645 c-1274 -142 -1456 -165 -1497 -184 -53 -26 -133 -106
-152 -154 -8 -17 -194 -761 -415 -1652 -221 -891 -404 -1628 -407 -1637 -5
-16 -101 -18 -1602 -21 -1589 -3 -1597 -3 -1682 -24 -47 -12 -119 -34 -160
-48 -430 -156 -746 -535 -825 -989 -21 -125 -21 -561 0 -634 19 -64 97 -151
163 -184 44 -21 63 -23 267 -28 l220 -5 463 -4325 c428 -3997 465 -4329 487
-4377 32 -70 102 -137 171 -162 l55 -21 2604 0 c2547 0 2606 0 2655 19 28 11
67 32 86 46 49 37 101 121 113 180 6 28 215 1967 466 4310 250 2343 458 4277
461 4298 l6 37 204 0 c177 0 210 3 254 19 77 29 134 82 171 157 32 64 33 70
37 228 6 211 -11 427 -43 549 -54 209 -155 391 -304 548 -190 201 -394 318
-676 386 -64 16 -195 17 -1497 20 -786 2 -1428 7 -1428 12 0 8 677 2744 700
2830 l9 36 1298 143 c714 79 1307 147 1318 150 20 7 20 9 -14 325 -22 202 -38
317 -45 316 -6 -1 -663 -74 -1461 -164z m1025 -4307 c113 -35 200 -87 280
-167 112 -112 171 -231 186 -377 l7 -64 -3807 0 -3806 0 0 20 c0 12 7 56 16
98 53 263 263 462 529 501 34 5 1490 8 3300 7 3023 -1 3244 -2 3295 -18z
m-204 -1295 c-11 -83 -876 -8165 -876 -8185 0 -17 -71 -18 -2250 -18 l-2250 0
-5 23 c-2 12 -200 1856 -440 4097 -239 2241 -437 4087 -440 4103 l-4 27 3135
0 3136 0 -6 -47z"/>
<path d="M33405 52645 c-1274 -142 -1456 -165 -1497 -184 -53 -26 -133 -106
-152 -154 -8 -17 -194 -761 -415 -1652 -221 -891 -404 -1628 -407 -1637 -5
-16 -101 -18 -1602 -21 -1589 -3 -1597 -3 -1682 -24 -47 -12 -119 -34 -160
-48 -430 -156 -746 -535 -825 -989 -21 -125 -21 -561 0 -634 19 -64 97 -151
163 -184 44 -21 63 -23 267 -28 l220 -5 463 -4325 c428 -3997 465 -4329 487
-4377 32 -70 102 -137 171 -162 l55 -21 2604 0 c2547 0 2606 0 2655 19 28 11
67 32 86 46 49 37 101 121 113 180 6 28 215 1967 466 4310 250 2343 458 4277
461 4298 l6 37 204 0 c177 0 210 3 254 19 77 29 134 82 171 157 32 64 33 70
37 228 6 211 -11 427 -43 549 -54 209 -155 391 -304 548 -190 201 -394 318
-676 386 -64 16 -195 17 -1497 20 -786 2 -1428 7 -1428 12 0 8 677 2744 700
2830 l9 36 1298 143 c714 79 1307 147 1318 150 20 7 20 9 -14 325 -22 202 -38
317 -45 316 -6 -1 -663 -74 -1461 -164z m1025 -4307 c113 -35 200 -87 280
-167 112 -112 171 -231 186 -377 l7 -64 -3807 0 -3806 0 0 20 c0 12 7 56 16
98 53 263 263 462 529 501 34 5 1490 8 3300 7 3023 -1 3244 -2 3295 -18z
m-204 -1295 c-11 -83 -876 -8165 -876 -8185 0 -17 -71 -18 -2250 -18 l-2250 0
-5 23 c-2 12 -200 1856 -440 4097 -239 2241 -437 4087 -440 4103 l-4 27 3135
0 3136 0 -6 -47z"/>
<path d="M45385 52645 c-1274 -142 -1456 -165 -1497 -184 -53 -26 -133 -106
-152 -154 -8 -17 -194 -761 -415 -1652 -221 -891 -404 -1628 -407 -1637 -5
-16 -101 -18 -1602 -21 -1589 -3 -1597 -3 -1682 -24 -47 -12 -119 -34 -160
-48 -430 -156 -746 -535 -825 -989 -21 -125 -21 -561 0 -634 19 -64 97 -151
163 -184 44 -21 63 -23 267 -28 l220 -5 463 -4325 c428 -3997 465 -4329 487
-4377 32 -70 102 -137 171 -162 l55 -21 2604 0 c2547 0 2606 0 2655 19 28 11
67 32 86 46 49 37 101 121 113 180 6 28 215 1967 466 4310 250 2343 458 4277
461 4298 l6 37 204 0 c177 0 210 3 254 19 77 29 134 82 171 157 32 64 33 70
37 228 6 211 -11 427 -43 549 -54 209 -155 391 -304 548 -190 201 -394 318
-676 386 -64 16 -195 17 -1497 20 -786 2 -1428 7 -1428 12 0 8 677 2744 700
2830 l9 36 1298 143 c714 79 1307 147 1318 150 20 7 20 9 -14 325 -22 202 -38
317 -45 316 -6 -1 -663 -74 -1461 -164z m1025 -4307 c113 -35 200 -87 280
-167 112 -112 171 -231 186 -377 l7 -64 -3807 0 -3806 0 0 20 c0 12 7 56 16
98 53 263 263 462 529 501 34 5 1490 8 3300 7 3023 -1 3244 -2 3295 -18z
m-204 -1295 c-11 -83 -876 -8165 -876 -8185 0 -17 -71 -18 -2250 -18 l-2250 0
-5 23 c-2 12 -200 1856 -440 4097 -239 2241 -437 4087 -440 4103 l-4 27 3135
0 3136 0 -6 -47z"/>
<path d="M57155 52645 c-1274 -142 -1456 -165 -1497 -184 -53 -26 -133 -106
-152 -154 -8 -17 -194 -761 -415 -1652 -221 -891 -404 -1628 -407 -1637 -5
-16 -101 -18 -1602 -21 -1589 -3 -1597 -3 -1682 -24 -47 -12 -119 -34 -160
-48 -430 -156 -746 -535 -825 -989 -21 -125 -21 -561 0 -634 19 -64 97 -151
163 -184 44 -21 63 -23 267 -28 l220 -5 463 -4325 c428 -3997 465 -4329 487
-4377 32 -70 102 -137 171 -162 l55 -21 2604 0 c2547 0 2606 0 2655 19 28 11
67 32 86 46 49 37 101 121 113 180 6 28 215 1967 466 4310 250 2343 458 4277
461 4298 l6 37 204 0 c177 0 210 3 254 19 77 29 134 82 171 157 32 64 33 70
37 228 6 211 -11 427 -43 549 -54 209 -155 391 -304 548 -190 201 -394 318
-676 386 -64 16 -195 17 -1497 20 -786 2 -1428 7 -1428 12 0 8 677 2744 700
2830 l9 36 1298 143 c714 79 1307 147 1318 150 20 7 20 9 -14 325 -22 202 -38
317 -45 316 -6 -1 -663 -74 -1461 -164z m1025 -4307 c113 -35 200 -87 280
-167 112 -112 171 -231 186 -377 l7 -64 -3807 0 -3806 0 0 20 c0 12 7 56 16
98 53 263 263 462 529 501 34 5 1490 8 3300 7 3023 -1 3244 -2 3295 -18z
m-204 -1295 c-11 -83 -876 -8165 -876 -8185 0 -17 -71 -18 -2250 -18 l-2250 0
-5 23 c-2 12 -200 1856 -440 4097 -239 2241 -437 4087 -440 4103 l-4 27 3135
0 3136 0 -6 -47z"/>
<path d="M69135 52645 c-1274 -142 -1456 -165 -1497 -184 -53 -26 -133 -106
-152 -154 -8 -17 -194 -761 -415 -1652 -221 -891 -404 -1628 -407 -1637 -5
-16 -101 -18 -1602 -21 -1589 -3 -1597 -3 -1682 -24 -47 -12 -119 -34 -160
-48 -430 -156 -746 -535 -825 -989 -21 -125 -21 -561 0 -634 19 -64 97 -151
163 -184 44 -21 63 -23 267 -28 l220 -5 463 -4325 c428 -3997 465 -4329 487
-4377 32 -70 102 -137 171 -162 l55 -21 2604 0 c2547 0 2606 0 2655 19 28 11
67 32 86 46 49 37 101 121 113 180 6 28 215 1967 466 4310 250 2343 458 4277
461 4298 l6 37 204 0 c177 0 210 3 254 19 77 29 134 82 171 157 32 64 33 70
37 228 6 211 -11 427 -43 549 -54 209 -155 391 -304 548 -190 201 -394 318
-676 386 -64 16 -195 17 -1497 20 -786 2 -1428 7 -1428 12 0 8 677 2744 700
2830 l9 36 1298 143 c714 79 1307 147 1318 150 20 7 20 9 -14 325 -22 202 -38
317 -45 316 -6 -1 -663 -74 -1461 -164z m1025 -4307 c113 -35 200 -87 280
-167 112 -112 171 -231 186 -377 l7 -64 -3807 0 -3806 0 0 20 c0 12 7 56 16
98 53 263 263 462 529 501 34 5 1490 8 3300 7 3023 -1 3244 -2 3295 -18z
m-204 -1295 c-11 -83 -876 -8165 -876 -8185 0 -17 -71 -18 -2250 -18 l-2250 0
-5 23 c-2 12 -200 1856 -440 4097 -239 2241 -437 4087 -440 4103 l-4 27 3135
0 3136 0 -6 -47z"/>
<path d="M80925 52645 c-1274 -142 -1456 -165 -1497 -184 -53 -26 -133 -106
-152 -154 -8 -17 -194 -761 -415 -1652 -221 -891 -404 -1628 -407 -1637 -5
-16 -101 -18 -1602 -21 -1589 -3 -1597 -3 -1682 -24 -47 -12 -119 -34 -160
-48 -430 -156 -746 -535 -825 -989 -21 -125 -21 -561 0 -634 19 -64 97 -151
163 -184 44 -21 63 -23 267 -28 l220 -5 463 -4325 c428 -3997 465 -4329 487
-4377 32 -70 102 -137 171 -162 l55 -21 2604 0 c2547 0 2606 0 2655 19 28 11
67 32 86 46 49 37 101 121 113 180 6 28 215 1967 466 4310 250 2343 458 4277
461 4298 l6 37 204 0 c177 0 210 3 254 19 77 29 134 82 171 157 32 64 33 70
37 228 6 211 -11 427 -43 549 -54 209 -155 391 -304 548 -190 201 -394 318
-676 386 -64 16 -195 17 -1497 20 -786 2 -1428 7 -1428 12 0 8 677 2744 700
2830 l9 36 1298 143 c714 79 1307 147 1318 150 20 7 20 9 -14 325 -22 202 -38
317 -45 316 -6 -1 -663 -74 -1461 -164z m1025 -4307 c113 -35 200 -87 280
-167 112 -112 171 -231 186 -377 l7 -64 -3807 0 -3806 0 0 20 c0 12 7 56 16
98 53 263 263 462 529 501 34 5 1490 8 3300 7 3023 -1 3244 -2 3295 -18z
m-204 -1295 c-11 -83 -876 -8165 -876 -8185 0 -17 -71 -18 -2250 -18 l-2250 0
-5 23 c-2 12 -200 1856 -440 4097 -239 2241 -437 4087 -440 4103 l-4 27 3135
0 3136 0 -6 -47z"/>
<path d="M9635 36115 c-1274 -142 -1456 -165 -1497 -184 -53 -26 -133 -106
-152 -154 -8 -17 -194 -761 -415 -1652 -221 -891 -404 -1628 -407 -1637 -5
-16 -101 -18 -1602 -21 -1589 -3 -1597 -3 -1682 -24 -47 -12 -119 -34 -160
-48 -430 -156 -746 -535 -825 -989 -21 -125 -21 -561 0 -634 19 -64 97 -151
163 -184 44 -21 63 -23 267 -28 l220 -5 463 -4325 c428 -3997 465 -4329 487
-4377 32 -70 102 -137 171 -162 l55 -21 2604 0 c2547 0 2606 0 2655 19 28 11
67 32 86 46 49 37 101 121 113 180 6 28 215 1967 466 4310 250 2343 458 4277
461 4298 l6 37 204 0 c177 0 210 3 254 19 77 29 134 82 171 157 32 64 33 70
37 228 6 211 -11 427 -43 549 -54 209 -155 391 -304 548 -190 201 -394 318
-676 386 -64 16 -195 17 -1497 20 -786 2 -1428 7 -1428 12 0 8 677 2744 700
2830 l9 36 1298 143 c714 79 1307 147 1318 150 20 7 20 9 -14 325 -22 202 -38
317 -45 316 -6 -1 -663 -74 -1461 -164z m1025 -4307 c113 -35 200 -87 280
-167 112 -112 171 -231 186 -377 l7 -64 -3807 0 -3806 0 0 20 c0 12 7 56 16
98 53 263 263 462 529 501 34 5 1490 8 3300 7 3023 -1 3244 -2 3295 -18z
m-204 -1295 c-11 -83 -876 -8165 -876 -8185 0 -17 -71 -18 -2250 -18 l-2250 0
-5 23 c-2 12 -200 1856 -440 4097 -239 2241 -437 4087 -440 4103 l-4 27 3135
0 3136 0 -6 -47z"/>
<path d="M21615 36115 c-1274 -142 -1456 -165 -1497 -184 -53 -26 -133 -106
-152 -154 -8 -17 -194 -761 -415 -1652 -221 -891 -404 -1628 -407 -1637 -5
-16 -101 -18 -1602 -21 -1589 -3 -1597 -3 -1682 -24 -47 -12 -119 -34 -160
-48 -430 -156 -746 -535 -825 -989 -21 -125 -21 -561 0 -634 19 -64 97 -151
163 -184 44 -21 63 -23 267 -28 l220 -5 463 -4325 c428 -3997 465 -4329 487
-4377 32 -70 102 -137 171 -162 l55 -21 2604 0 c2547 0 2606 0 2655 19 28 11
67 32 86 46 49 37 101 121 113 180 6 28 215 1967 466 4310 250 2343 458 4277
461 4298 l6 37 204 0 c177 0 210 3 254 19 77 29 134 82 171 157 32 64 33 70
37 228 6 211 -11 427 -43 549 -54 209 -155 391 -304 548 -190 201 -394 318
-676 386 -64 16 -195 17 -1497 20 -786 2 -1428 7 -1428 12 0 8 677 2744 700
2830 l9 36 1298 143 c714 79 1307 147 1318 150 20 7 20 9 -14 325 -22 202 -38
317 -45 316 -6 -1 -663 -74 -1461 -164z m1025 -4307 c113 -35 200 -87 280
-167 112 -112 171 -231 186 -377 l7 -64 -3807 0 -3806 0 0 20 c0 12 7 56 16
98 53 263 263 462 529 501 34 5 1490 8 3300 7 3023 -1 3244 -2 3295 -18z
m-204 -1295 c-11 -83 -876 -8165 -876 -8185 0 -17 -71 -18 -2250 -18 l-2250 0
-5 23 c-2 12 -200 1856 -440 4097 -239 2241 -437 4087 -440 4103 l-4 27 3135
0 3136 0 -6 -47z"/>
<path d="M33405 36115 c-1274 -142 -1456 -165 -1497 -184 -53 -26 -133 -106
-152 -154 -8 -17 -194 -761 -415 -1652 -221 -891 -404 -1628 -407 -1637 -5
-16 -101 -18 -1602 -21 -1589 -3 -1597 -3 -1682 -24 -47 -12 -119 -34 -160
-48 -430 -156 -746 -535 -825 -989 -21 -125 -21 -561 0 -634 19 -64 97 -151
163 -184 44 -21 63 -23 267 -28 l220 -5 463 -4325 c428 -3997 465 -4329 487
-4377 32 -70 102 -137 171 -162 l55 -21 2604 0 c2547 0 2606 0 2655 19 28 11
67 32 86 46 49 37 101 121 113 180 6 28 215 1967 466 4310 250 2343 458 4277
461 4298 l6 37 204 0 c177 0 210 3 254 19 77 29 134 82 171 157 32 64 33 70
37 228 6 211 -11 427 -43 549 -54 209 -155 391 -304 548 -190 201 -394 318
-676 386 -64 16 -195 17 -1497 20 -786 2 -1428 7 -1428 12 0 8 677 2744 700
2830 l9 36 1298 143 c714 79 1307 147 1318 150 20 7 20 9 -14 325 -22 202 -38
317 -45 316 -6 -1 -663 -74 -1461 -164z m1025 -4307 c113 -35 200 -87 280
-167 112 -112 171 -231 186 -377 l7 -64 -3807 0 -3806 0 0 20 c0 12 7 56 16
98 53 263 263 462 529 501 34 5 1490 8 3300 7 3023 -1 3244 -2 3295 -18z
m-204 -1295 c-11 -83 -876 -8165 -876 -8185 0 -17 -71 -18 -2250 -18 l-2250 0
-5 23 c-2 12 -200 1856 -440 4097 -239 2241 -437 4087 -440 4103 l-4 27 3135
0 3136 0 -6 -47z"/>
<path d="M45385 36115 c-1274 -142 -1456 -165 -1497 -184 -53 -26 -133 -106
-152 -154 -8 -17 -194 -761 -415 -1652 -221 -891 -404 -1628 -407 -1637 -5
-16 -101 -18 -1602 -21 -1589 -3 -1597 -3 -1682 -24 -47 -12 -119 -34 -160
-48 -430 -156 -746 -535 -825 -989 -21 -125 -21 -561 0 -634 19 -64 97 -151
163 -184 44 -21 63 -23 267 -28 l220 -5 463 -4325 c428 -3997 465 -4329 487
-4377 32 -70 102 -137 171 -162 l55 -21 2604 0 c2547 0 2606 0 2655 19 28 11
67 32 86 46 49 37 101 121 113 180 6 28 215 1967 466 4310 250 2343 458 4277
461 4298 l6 37 204 0 c177 0 210 3 254 19 77 29 134 82 171 157 32 64 33 70
37 228 6 211 -11 427 -43 549 -54 209 -155 391 -304 548 -190 201 -394 318
-676 386 -64 16 -195 17 -1497 20 -786 2 -1428 7 -1428 12 0 8 677 2744 700
2830 l9 36 1298 143 c714 79 1307 147 1318 150 20 7 20 9 -14 325 -22 202 -38
317 -45 316 -6 -1 -663 -74 -1461 -164z m1025 -4307 c113 -35 200 -87 280
-167 112 -112 171 -231 186 -377 l7 -64 -3807 0 -3806 0 0 20 c0 12 7 56 16
98 53 263 263 462 529 501 34 5 1490 8 3300 7 3023 -1 3244 -2 3295 -18z
m-204 -1295 c-11 -83 -876 -8165 -876 -8185 0 -17 -71 -18 -2250 -18 l-2250 0
-5 23 c-2 12 -200 1856 -440 4097 -239 2241 -437 4087 -440 4103 l-4 27 3135
0 3136 0 -6 -47z"/>
<path d="M57155 36115 c-1274 -142 -1456 -165 -1497 -184 -53 -26 -133 -106
-152 -154 -8 -17 -194 -761 -415 -1652 -221 -891 -404 -1628 -407 -1637 -5
-16 -101 -18 -1602 -21 -1589 -3 -1597 -3 -1682 -24 -47 -12 -119 -34 -160
-48 -430 -156 -746 -535 -825 -989 -21 -125 -21 -561 0 -634 19 -64 97 -151
163 -184 44 -21 63 -23 267 -28 l220 -5 463 -4325 c428 -3997 465 -4329 487
-4377 32 -70 102 -137 171 -162 l55 -21 2604 0 c2547 0 2606 0 2655 19 28 11
67 32 86 46 49 37 101 121 113 180 6 28 215 1967 466 4310 250 2343 458 4277
461 4298 l6 37 204 0 c177 0 210 3 254 19 77 29 134 82 171 157 32 64 33 70
37 228 6 211 -11 427 -43 549 -54 209 -155 391 -304 548 -190 201 -394 318
-676 386 -64 16 -195 17 -1497 20 -786 2 -1428 7 -1428 12 0 8 677 2744 700
2830 l9 36 1298 143 c714 79 1307 147 1318 150 20 7 20 9 -14 325 -22 202 -38
317 -45 316 -6 -1 -663 -74 -1461 -164z m1025 -4307 c113 -35 200 -87 280
-167 112 -112 171 -231 186 -377 l7 -64 -3807 0 -3806 0 0 20 c0 12 7 56 16
98 53 263 263 462 529 501 34 5 1490 8 3300 7 3023 -1 3244 -2 3295 -18z
m-204 -1295 c-11 -83 -876 -8165 -876 -8185 0 -17 -71 -18 -2250 -18 l-2250 0
-5 23 c-2 12 -200 1856 -440 4097 -239 2241 -437 4087 -440 4103 l-4 27 3135
0 3136 0 -6 -47z"/>
<path d="M69135 36115 c-1274 -142 -1456 -165 -1497 -184 -53 -26 -133 -106
-152 -154 -8 -17 -194 -761 -415 -1652 -221 -891 -404 -1628 -407 -1637 -5
-16 -101 -18 -1602 -21 -1589 -3 -1597 -3 -1682 -24 -47 -12 -119 -34 -160
-48 -430 -156 -746 -535 -825 -989 -21 -125 -21 -561 0 -634 19 -64 97 -151
163 -184 44 -21 63 -23 267 -28 l220 -5 463 -4325 c428 -3997 465 -4329 487
-4377 32 -70 102 -137 171 -162 l55 -21 2604 0 c2547 0 2606 0 2655 19 28 11
67 32 86 46 49 37 101 121 113 180 6 28 215 1967 466 4310 250 2343 458 4277
461 4298 l6 37 204 0 c177 0 210 3 254 19 77 29 134 82 171 157 32 64 33 70
37 228 6 211 -11 427 -43 549 -54 209 -155 391 -304 548 -190 201 -394 318
-676 386 -64 16 -195 17 -1497 20 -786 2 -1428 7 -1428 12 0 8 677 2744 700
2830 l9 36 1298 143 c714 79 1307 147 1318 150 20 7 20 9 -14 325 -22 202 -38
317 -45 316 -6 -1 -663 -74 -1461 -164z m1025 -4307 c113 -35 200 -87 280
-167 112 -112 171 -231 186 -377 l7 -64 -3807 0 -3806 0 0 20 c0 12 7 56 16
98 53 263 263 462 529 501 34 5 1490 8 3300 7 3023 -1 3244 -2 3295 -18z
m-204 -1295 c-11 -83 -876 -8165 -876 -8185 0 -17 -71 -18 -2250 -18 l-2250 0
-5 23 c-2 12 -200 1856 -440 4097 -239 2241 -437 4087 -440 4103 l-4 27 3135
0 3136 0 -6 -47z"/>
<path d="M80925 36115 c-1274 -142 -1456 -165 -1497 -184 -53 -26 -133 -106
-152 -154 -8 -17 -194 -761 -415 -1652 -221 -891 -404 -1628 -407 -1637 -5
-16 -101 -18 -1602 -21 -1589 -3 -1597 -3 -1682 -24 -47 -12 -119 -34 -160
-48 -430 -156 -746 -535 -825 -989 -21 -125 -21 -561 0 -634 19 -64 97 -151
163 -184 44 -21 63 -23 267 -28 l220 -5 463 -4325 c428 -3997 465 -4329 487
-4377 32 -70 102 -137 171 -162 l55 -21 2604 0 c2547 0 2606 0 2655 19 28 11
67 32 86 46 49 37 101 121 113 180 6 28 215 1967 466 4310 250 2343 458 4277
461 4298 l6 37 204 0 c177 0 210 3 254 19 77 29 134 82 171 157 32 64 33 70
37 228 6 211 -11 427 -43 549 -54 209 -155 391 -304 548 -190 201 -394 318
-676 386 -64 16 -195 17 -1497 20 -786 2 -1428 7 -1428 12 0 8 677 2744 700
2830 l9 36 1298 143 c714 79 1307 147 1318 150 20 7 20 9 -14 325 -22 202 -38
317 -45 316 -6 -1 -663 -74 -1461 -164z m1025 -4307 c113 -35 200 -87 280
-167 112 -112 171 -231 186 -377 l7 -64 -3807 0 -3806 0 0 20 c0 12 7 56 16
98 53 263 263 462 529 501 34 5 1490 8 3300 7 3023 -1 3244 -2 3295 -18z
m-204 -1295 c-11 -83 -876 -8165 -876 -8185 0 -17 -71 -18 -2250 -18 l-2250 0
-5 23 c-2 12 -200 1856 -440 4097 -239 2241 -437 4087 -440 4103 l-4 27 3135
0 3136 0 -6 -47z"/>
<path d="M9635 19585 c-1274 -142 -1456 -165 -1497 -184 -53 -26 -133 -106
-152 -154 -8 -17 -194 -761 -415 -1652 -221 -891 -404 -1628 -407 -1637 -5
-16 -101 -18 -1602 -21 -1589 -3 -1597 -3 -1682 -24 -47 -12 -119 -34 -160
-48 -430 -156 -746 -535 -825 -989 -21 -125 -21 -561 0 -634 19 -64 97 -151
163 -184 44 -21 63 -23 267 -28 l220 -5 463 -4325 c428 -3997 465 -4329 487
-4377 32 -70 102 -137 171 -162 l55 -21 2604 0 c2547 0 2606 0 2655 19 28 11
67 32 86 46 49 37 101 121 113 180 6 28 215 1967 466 4310 250 2343 458 4277
461 4298 l6 37 204 0 c177 0 210 3 254 19 77 29 134 82 171 157 32 64 33 70
37 228 6 211 -11 427 -43 549 -54 209 -155 391 -304 548 -190 201 -394 318
-676 386 -64 16 -195 17 -1497 20 -786 2 -1428 7 -1428 12 0 8 677 2744 700
2830 l9 36 1298 143 c714 79 1307 147 1318 150 20 7 20 9 -14 325 -22 202 -38
317 -45 316 -6 -1 -663 -74 -1461 -164z m1025 -4307 c113 -35 200 -87 280
-167 112 -112 171 -231 186 -377 l7 -64 -3807 0 -3806 0 0 20 c0 12 7 56 16
98 53 263 263 462 529 501 34 5 1490 8 3300 7 3023 -1 3244 -2 3295 -18z
m-204 -1295 c-11 -83 -876 -8165 -876 -8185 0 -17 -71 -18 -2250 -18 l-2250 0
-5 23 c-2 12 -200 1856 -440 4097 -239 2241 -437 4087 -440 4103 l-4 27 3135
0 3136 0 -6 -47z"/>
<path d="M21615 19585 c-1274 -142 -1456 -165 -1497 -184 -53 -26 -133 -106
-152 -154 -8 -17 -194 -761 -415 -1652 -221 -891 -404 -1628 -407 -1637 -5
-16 -101 -18 -1602 -21 -1589 -3 -1597 -3 -1682 -24 -47 -12 -119 -34 -160
-48 -430 -156 -746 -535 -825 -989 -21 -125 -21 -561 0 -634 19 -64 97 -151
163 -184 44 -21 63 -23 267 -28 l220 -5 463 -4325 c428 -3997 465 -4329 487
-4377 32 -70 102 -137 171 -162 l55 -21 2604 0 c2547 0 2606 0 2655 19 28 11
67 32 86 46 49 37 101 121 113 180 6 28 215 1967 466 4310 250 2343 458 4277
461 4298 l6 37 204 0 c177 0 210 3 254 19 77 29 134 82 171 157 32 64 33 70
37 228 6 211 -11 427 -43 549 -54 209 -155 391 -304 548 -190 201 -394 318
-676 386 -64 16 -195 17 -1497 20 -786 2 -1428 7 -1428 12 0 8 677 2744 700
2830 l9 36 1298 143 c714 79 1307 147 1318 150 20 7 20 9 -14 325 -22 202 -38
317 -45 316 -6 -1 -663 -74 -1461 -164z m1025 -4307 c113 -35 200 -87 280
-167 112 -112 171 -231 186 -377 l7 -64 -3807 0 -3806 0 0 20 c0 12 7 56 16
98 53 263 263 462 529 501 34 5 1490 8 3300 7 3023 -1 3244 -2 3295 -18z
m-204 -1295 c-11 -83 -876 -8165 -876 -8185 0 -17 -71 -18 -2250 -18 l-2250 0
-5 23 c-2 12 -200 1856 -440 4097 -239 2241 -437 4087 -440 4103 l-4 27 3135
0 3136 0 -6 -47z"/>
<path d="M33405 19585 c-1274 -142 -1456 -165 -1497 -184 -53 -26 -133 -106
-152 -154 -8 -17 -194 -761 -415 -1652 -221 -891 -404 -1628 -407 -1637 -5
-16 -101 -18 -1602 -21 -1589 -3 -1597 -3 -1682 -24 -47 -12 -119 -34 -160
-48 -430 -156 -746 -535 -825 -989 -21 -125 -21 -561 0 -634 19 -64 97 -151
163 -184 44 -21 63 -23 267 -28 l220 -5 463 -4325 c428 -3997 465 -4329 487
-4377 32 -70 102 -137 171 -162 l55 -21 2604 0 c2547 0 2606 0 2655 19 28 11
67 32 86 46 49 37 101 121 113 180 6 28 215 1967 466 4310 250 2343 458 4277
461 4298 l6 37 204 0 c177 0 210 3 254 19 77 29 134 82 171 157 32 64 33 70
37 228 6 211 -11 427 -43 549 -54 209 -155 391 -304 548 -190 201 -394 318
-676 386 -64 16 -195 17 -1497 20 -786 2 -1428 7 -1428 12 0 8 677 2744 700
2830 l9 36 1298 143 c714 79 1307 147 1318 150 20 7 20 9 -14 325 -22 202 -38
317 -45 316 -6 -1 -663 -74 -1461 -164z m1025 -4307 c113 -35 200 -87 280
-167 112 -112 171 -231 186 -377 l7 -64 -3807 0 -3806 0 0 20 c0 12 7 56 16
98 53 263 263 462 529 501 34 5 1490 8 3300 7 3023 -1 3244 -2 3295 -18z
m-204 -1295 c-11 -83 -876 -8165 -876 -8185 0 -17 -71 -18 -2250 -18 l-2250 0
-5 23 c-2 12 -200 1856 -440 4097 -239 2241 -437 4087 -440 4103 l-4 27 3135
0 3136 0 -6 -47z"/>
<path fill="#2bb7da" d="M45385 19585 c-1274 -142 -1456 -165 -1497 -184 -53 -26 -133 -106
-152 -154 -8 -17 -194 -761 -415 -1652 -221 -891 -404 -1628 -407 -1637 -5
-16 -101 -18 -1602 -21 -1589 -3 -1597 -3 -1682 -24 -47 -12 -119 -34 -160
-48 -430 -156 -746 -535 -825 -989 -21 -125 -21 -561 0 -634 19 -64 97 -151
163 -184 44 -21 63 -23 267 -28 l220 -5 463 -4325 c428 -3997 465 -4329 487
-4377 32 -70 102 -137 171 -162 l55 -21 2604 0 c2547 0 2606 0 2655 19 28 11
67 32 86 46 49 37 101 121 113 180 6 28 215 1967 466 4310 250 2343 458 4277
461 4298 l6 37 204 0 c177 0 210 3 254 19 77 29 134 82 171 157 32 64 33 70
37 228 6 211 -11 427 -43 549 -54 209 -155 391 -304 548 -190 201 -394 318
-676 386 -64 16 -195 17 -1497 20 -786 2 -1428 7 -1428 12 0 8 677 2744 700
2830 l9 36 1298 143 c714 79 1307 147 1318 150 20 7 20 9 -14 325 -22 202 -38
317 -45 316 -6 -1 -663 -74 -1461 -164z m1025 -4307 c113 -35 200 -87 280
-167 112 -112 171 -231 186 -377 l7 -64 -3807 0 -3806 0 0 20 c0 12 7 56 16
98 53 263 263 462 529 501 34 5 1490 8 3300 7 3023 -1 3244 -2 3295 -18z
m-204 -1295 c-11 -83 -876 -8165 -876 -8185 0 -17 -71 -18 -2250 -18 l-2250 0
-5 23 c-2 12 -200 1856 -440 4097 -239 2241 -437 4087 -440 4103 l-4 27 3135
0 3136 0 -6 -47z"/>
<path fill="#2bb7da" d="M57155 19585 c-1274 -142 -1456 -165 -1497 -184 -53 -26 -133 -106
-152 -154 -8 -17 -194 -761 -415 -1652 -221 -891 -404 -1628 -407 -1637 -5
-16 -101 -18 -1602 -21 -1589 -3 -1597 -3 -1682 -24 -47 -12 -119 -34 -160
-48 -430 -156 -746 -535 -825 -989 -21 -125 -21 -561 0 -634 19 -64 97 -151
163 -184 44 -21 63 -23 267 -28 l220 -5 463 -4325 c428 -3997 465 -4329 487
-4377 32 -70 102 -137 171 -162 l55 -21 2604 0 c2547 0 2606 0 2655 19 28 11
67 32 86 46 49 37 101 121 113 180 6 28 215 1967 466 4310 250 2343 458 4277
461 4298 l6 37 204 0 c177 0 210 3 254 19 77 29 134 82 171 157 32 64 33 70
37 228 6 211 -11 427 -43 549 -54 209 -155 391 -304 548 -190 201 -394 318
-676 386 -64 16 -195 17 -1497 20 -786 2 -1428 7 -1428 12 0 8 677 2744 700
2830 l9 36 1298 143 c714 79 1307 147 1318 150 20 7 20 9 -14 325 -22 202 -38
317 -45 316 -6 -1 -663 -74 -1461 -164z m1025 -4307 c113 -35 200 -87 280
-167 112 -112 171 -231 186 -377 l7 -64 -3807 0 -3806 0 0 20 c0 12 7 56 16
98 53 263 263 462 529 501 34 5 1490 8 3300 7 3023 -1 3244 -2 3295 -18z
m-204 -1295 c-11 -83 -876 -8165 -876 -8185 0 -17 -71 -18 -2250 -18 l-2250 0
-5 23 c-2 12 -200 1856 -440 4097 -239 2241 -437 4087 -440 4103 l-4 27 3135
0 3136 0 -6 -47z"/>
<path fill="#2bb7da" d="M69135 19585 c-1274 -142 -1456 -165 -1497 -184 -53 -26 -133 -106
-152 -154 -8 -17 -194 -761 -415 -1652 -221 -891 -404 -1628 -407 -1637 -5
-16 -101 -18 -1602 -21 -1589 -3 -1597 -3 -1682 -24 -47 -12 -119 -34 -160
-48 -430 -156 -746 -535 -825 -989 -21 -125 -21 -561 0 -634 19 -64 97 -151
163 -184 44 -21 63 -23 267 -28 l220 -5 463 -4325 c428 -3997 465 -4329 487
-4377 32 -70 102 -137 171 -162 l55 -21 2604 0 c2547 0 2606 0 2655 19 28 11
67 32 86 46 49 37 101 121 113 180 6 28 215 1967 466 4310 250 2343 458 4277
461 4298 l6 37 204 0 c177 0 210 3 254 19 77 29 134 82 171 157 32 64 33 70
37 228 6 211 -11 427 -43 549 -54 209 -155 391 -304 548 -190 201 -394 318
-676 386 -64 16 -195 17 -1497 20 -786 2 -1428 7 -1428 12 0 8 677 2744 700
2830 l9 36 1298 143 c714 79 1307 147 1318 150 20 7 20 9 -14 325 -22 202 -38
317 -45 316 -6 -1 -663 -74 -1461 -164z m1025 -4307 c113 -35 200 -87 280
-167 112 -112 171 -231 186 -377 l7 -64 -3807 0 -3806 0 0 20 c0 12 7 56 16
98 53 263 263 462 529 501 34 5 1490 8 3300 7 3023 -1 3244 -2 3295 -18z
m-204 -1295 c-11 -83 -876 -8165 -876 -8185 0 -17 -71 -18 -2250 -18 l-2250 0
-5 23 c-2 12 -200 1856 -440 4097 -239 2241 -437 4087 -440 4103 l-4 27 3135
0 3136 0 -6 -47z"/>
</g>
</svg>
