<?xml version="1.0" standalone="no"?>
<!DOCTYPE svg PUBLIC "-//W3C//DTD SVG 20010904//EN"
 "http://www.w3.org/TR/2001/REC-SVG-20010904/DTD/svg10.dtd">
<svg version="1.0" xmlns="http://www.w3.org/2000/svg"
 width="389.000000pt" height="252.000000pt" viewBox="0 0 389.000000 252.000000"
 preserveAspectRatio="xMidYMid meet">
<metadata>
Created by potrace 1.16, written by Peter Selinger 2001-2019
</metadata>
<g transform="translate(0.000000,252.000000) scale(0.100000,-0.100000)"
fill="#5F5F61" stroke="none">
<path d="M2710 2269 c-172 -19 -349 -87 -447 -173 -114 -101 -140 -257 -49
-300 64 -30 162 -36 636 -36 474 0 572 6 636 36 91 43 65 199 -49 300 -155
136 -441 204 -727 173z m385 -129 c166 -43 295 -132 311 -214 3 -20 4 -40 0
-43 -27 -27 -1085 -27 -1112 0 -18 18 10 82 55 127 74 73 195 126 346 150 96
15 308 4 400 -20z"/>
<path d="M945 1899 c-297 -37 -535 -200 -535 -365 0 -87 32 -115 157 -134 104
-16 1073 -8 1131 10 92 28 118 114 66 218 -97 194 -463 315 -819 271z m405
-129 c156 -40 291 -134 306 -214 3 -20 3 -40 -1 -44 -9 -9 -993 -15 -1062 -7
-48 6 -53 9 -53 31 0 105 180 219 398 254 98 15 316 5 412 -20z"/>
<path d="M2255 1684 c-114 -27 -155 -44 -155 -64 0 -10 5 -22 10 -25 6 -4 57
6 113 20 133 36 181 36 297 2 92 -26 97 -27 150 -12 30 8 83 22 118 30 66 16
77 15 242 -30 58 -16 49 -17 220 30 62 18 129 11 253 -26 75 -22 97 -20 97 10
0 21 -41 38 -160 66 -96 22 -170 19 -272 -12 l-88 -26 -88 27 c-110 33 -174
33 -284 0 l-88 -27 -87 27 c-100 30 -182 33 -278 10z"/>
<path fill="#2bb7da" d="M2185 1506 c-76 -34 -106 -116 -66 -182 40 -66 20 -64 731 -64 572 0
646 2 676 16 79 37 99 125 43 189 -17 19 -47 40 -67 46 -24 7 -133 9 -307 7
l-270 -3 -133 -64 -133 -64 -131 64 c-130 63 -134 64 -222 67 -61 1 -101 -2
-121 -12z"/>
<path d="M530 1328 c-25 -5 -76 -18 -113 -29 -60 -18 -68 -23 -65 -42 4 -28
34 -28 142 2 104 28 174 27 277 -4 92 -28 113 -27 217 6 78 26 157 22 264 -11
l78 -24 93 27 c112 33 178 34 283 6 107 -30 138 -30 142 -2 4 24 -10 30 -148
63 -112 26 -173 25 -267 -5 -96 -31 -94 -31 -199 0 -47 14 -108 25 -134 25
-26 0 -87 -11 -134 -25 -105 -31 -103 -31 -199 0 -82 26 -156 30 -237 13z"/>
<path  d="M419 1171 c-47 -26 -69 -61 -69 -111 0 -51 22 -86 71 -111 37 -18 64
-19 679 -19 622 0 642 1 680 20 93 48 93 172 0 220 -36 19 -58 20 -310 20
-306 0 -306 0 -478 -93 l-73 -39 -132 63 -132 64 -100 2 c-84 3 -106 0 -136
-16z"/>
<path  d="M2168 1170 c-92 -49 -90 -173 2 -220 38 -19 58 -20 680 -20 615 0
642 1 679 19 49 25 71 60 71 111 0 51 -22 86 -72 111 -37 19 -56 20 -321 17
l-283 -3 -129 -63 -130 -63 -130 63 -130 63 -100 3 c-84 2 -106 -1 -137 -18z"/>
<path  d="M422 879 c-76 -38 -97 -128 -44 -190 17 -21 32 -55 39 -93 26 -127
112 -191 298 -223 127 -21 615 -24 740 -4 219 35 301 92 326 226 6 33 19 69
29 80 49 55 54 117 13 166 -37 44 -80 59 -167 59 -85 0 -134 -15 -271 -85 -48
-25 -92 -45 -97 -45 -4 0 -66 28 -136 63 l-127 62 -280 3 c-270 2 -282 2 -323
-19z m1234 -266 c-16 -65 -79 -112 -181 -133 -27 -6 -161 -14 -297 -17 -349
-8 -523 13 -587 71 -22 20 -51 74 -51 96 0 7 182 10 561 10 l561 0 -6 -27z"/>
<path d="M2185 886 c-17 -7 -44 -28 -59 -47 -25 -29 -28 -39 -23 -82 3 -33 12
-56 30 -75 17 -18 29 -47 36 -87 25 -133 110 -192 326 -227 125 -19 614 -16
740 5 186 32 272 96 298 222 7 35 23 75 40 96 51 67 29 152 -48 189 -51 25
-172 27 -236 5 -24 -9 -90 -39 -147 -67 l-103 -51 -132 64 -132 64 -280 2
c-218 2 -287 0 -310 -11z m1221 -273 c-17 -70 -80 -115 -191 -135 -97 -18
-633 -18 -730 0 -111 20 -174 65 -191 135 l-6 27 562 0 562 0 -6 -27z"/>
</g>
</svg>
